# https://github.com/mikedh/trimesh
v 1.56313216 -1.81799390 7.42065595 0.85490196 0.94901961 0.47843137
v 1.52072070 -1.94075020 7.28751485 0.00000000 0.00000000 0.00000000
v 1.63569193 -1.81312845 7.28508398 0.76862745 0.86274510 0.38431373
v -3.69233149 -2.32984358 9.11487659 0.30196078 0.37647059 0.43529412
v -2.83740135 -2.32379869 9.04803846 0.50196078 0.61960784 0.71372549
v -3.55708511 -2.33903021 9.17427339 0.29411765 0.38823529 0.49019608
v 1.81571706 -1.83673135 7.41617383 0.48627451 0.54901961 0.27058824
v 1.96618619 -1.86474062 7.64470965 0.84313725 0.90196078 0.67843137
v 2.07481294 -1.97107229 7.63531160 0.86274510 0.93725490 0.57647059
v 2.07510208 -1.86936965 7.66387461 0.47058824 0.52156863 0.24705882
v 1.96133156 -1.96358034 7.62571550 0.83921569 0.88235294 0.72549020
v 1.76302812 -1.66148077 7.66364965 0.85882353 0.92549020 0.56470588
v 1.86248252 -1.96851820 7.64463952 0.85098039 0.92549020 0.57254902
v 2.28313904 -1.97329558 7.66402365 0.61176471 0.64705882 0.46274510
v 2.18399996 -1.97599997 7.65439987 0.87058824 0.92941176 0.61176471
v 2.28799996 -1.97599997 7.65439987 0.41176471 0.46274510 0.25490196
v 2.39199996 -1.97599997 7.65439987 0.49803922 0.53333333 0.34901961
v 2.48492620 -1.96829656 7.64507711 0.60000000 0.62352941 0.51372549
v 2.49599996 -1.97599997 7.65439987 0.42352941 0.45490196 0.37254902
v 2.59999996 -1.97599997 7.65439987 0.58039216 0.63137255 0.42352941
v 2.80099746 -1.97107229 7.63531160 0.61176471 0.65490196 0.48627451
v 2.90713884 -1.97307338 7.66446234 0.75294118 0.81960784 0.50588235
v 2.70399995 -1.97599997 7.65439987 0.57647059 0.62745098 0.41568627
v 2.91199995 -1.97599997 7.65439987 0.66666667 0.72549020 0.46274510
v 3.11221940 -1.97107229 7.63531160 0.75294118 0.82745098 0.50980392
v 3.01599995 -1.97599997 7.65439987 0.62745098 0.67058824 0.55294118
v 3.01113880 -1.97303635 7.66453545 0.74117647 0.77254902 0.62745098
v 3.22399995 -1.76799997 7.65439987 0.74509804 0.83921569 0.39215686
v 3.21596005 -1.97107229 7.63531160 0.75686275 0.82352941 0.50980392
v 2.07999997 -1.87199997 7.65439987 0.85882353 0.94901961 0.49019608
v 1.86710215 -1.86944372 7.66372839 0.83921569 0.93725490 0.47450980
v 1.86706512 -1.76544372 7.66372557 0.83529412 0.93725490 0.43921569
v 1.86702808 -1.66144373 7.66372276 0.83529412 0.93725490 0.43921569
v 2.07506505 -1.76536966 7.66387180 0.46274510 0.52156863 0.25882353
v 1.96614925 -1.76099998 7.64470684 0.84705882 0.90588235 0.68235294
v 1.96611232 -1.65725934 7.64470404 0.84705882 0.90588235 0.68235294
v 2.07499099 -1.55736968 7.66386618 0.46274510 0.52156863 0.25882353
v 2.08008059 -1.24849517 7.68304560 0.46274510 0.52156863 0.25882353
v 2.07495396 -1.45336968 7.66386336 0.46274510 0.52156863 0.25882353
v 2.07502802 -1.66136967 7.66386899 0.46274510 0.52156863 0.25882353
v 1.86699105 -1.55744374 7.66371995 0.83529412 0.93725490 0.43921569
v 1.96607538 -1.55351870 7.64470123 0.84705882 0.90588235 0.68235294
v 2.07491692 -1.34936969 7.66386055 0.46274510 0.52156863 0.25882353
v 1.86695402 -1.45344375 7.66371714 0.83529412 0.93725490 0.43921569
v 1.46646104 1.45063432 5.89395851 0.00000000 0.00392157 0.00000000
v 1.18752863 1.49109113 5.83425921 0.00000000 0.00784314 0.00000000
v 1.32002129 1.48945963 5.82041265 0.00000000 0.01176471 0.03529412
v 1.46511571 1.48304681 5.89236978 0.56470588 0.62352941 0.71372549
v 1.31836168 1.34515539 5.81749949 0.58039216 0.63137255 0.70588235
v 0.98894413 1.19779761 5.83307276 0.00000000 0.02745098 0.00000000
v 1.12351396 1.10976158 5.82933266 0.57647059 0.64313725 0.70588235
v 1.26651035 1.15149404 5.89310020 0.00000000 0.00000000 0.03137255
v 1.47161892 1.49127264 5.90868098 0.55686275 0.61960784 0.68235294
v 1.31888480 0.98939584 5.81842110 0.56470588 0.62745098 0.72941176
v 1.46383352 0.94327171 5.88746333 0.54509804 0.61176471 0.68235294
v 1.31969244 0.90318261 5.81919026 0.00000000 0.00000000 0.00784314
v 1.46676620 0.85027466 5.89419511 0.00392157 0.02352941 0.00000000
v 1.46809203 0.85922514 5.90617454 0.00000000 0.00392157 0.00000000
v 1.33976626 1.12257549 6.56277417 0.56078431 0.64705882 0.63921569
v 1.46788283 1.45956345 5.90629623 0.00000000 0.00784314 0.01960784
v 1.37314675 0.90069688 6.06037044 0.00392157 0.00784314 0.01568627
v 1.34865884 1.39718926 6.59932111 0.54901961 0.64313725 0.65882353
v -1.85955897 1.17889309 4.53758879 0.00000000 0.00784314 0.02352941
v -1.53660733 1.24290250 4.56357554 0.01568627 0.00000000 0.00000000
v -1.51485386 1.20328758 4.54367351 0.01568627 0.01960784 0.03529412
v 1.49976887 1.94226315 7.34066168 0.01176471 0.00784314 0.00000000
v 1.65585960 1.83868560 7.30374495 0.55294118 0.61176471 0.70196078
v 1.75087422 1.88509496 7.43243497 0.55294118 0.63137255 0.53333333
v 1.27249810 1.85440086 7.26600789 0.00000000 0.01960784 0.00000000
v 1.31888480 0.98939584 5.81842110 0.56470588 0.62745098 0.72941176
v 1.46383352 0.94327171 5.88746333 0.54509804 0.61176471 0.68235294
v 1.12351396 1.10976158 5.82933266 0.57647059 0.64313725 0.70588235
v 1.31969244 0.90318261 5.81919026 0.00000000 0.00000000 0.00784314
v 1.32002129 1.48945963 5.82041265 0.00000000 0.01176471 0.03529412
v 1.31836168 1.34515539 5.81749949 0.58039216 0.63137255 0.70588235
v 1.46646104 1.45063432 5.89395851 0.00000000 0.00392157 0.00000000
v 1.46511571 1.48304681 5.89236978 0.56470588 0.62352941 0.71372549
v 1.46686196 1.50852121 5.89479361 0.00392157 0.02745098 0.02745098
v 1.18752863 1.49109113 5.83425921 0.00000000 0.00784314 0.00000000
v 1.26651035 1.15149404 5.89310020 0.00000000 0.00000000 0.03137255
v 1.37314675 0.90069688 6.06037044 0.00392157 0.00784314 0.01568627
v 1.43054706 1.57006704 7.41868317 0.00000000 0.00784314 0.00000000
v 1.33976626 1.12257549 6.56277417 0.56078431 0.64705882 0.63921569
v 1.46676620 0.85027466 5.89419511 0.00392157 0.02352941 0.00000000
v 1.46809203 0.85922514 5.90617454 0.00000000 0.00392157 0.00000000
v 1.37248839 1.51240695 6.05858357 0.00000000 0.00784314 0.00392157
v 1.46788283 1.45956345 5.90629623 0.00000000 0.00784314 0.01960784
v 1.56058207 1.82912128 7.41613073 0.85490196 0.95294118 0.48235294
v 1.34865884 1.39718926 6.59932111 0.54901961 0.64313725 0.65882353
v 1.41958027 1.55043318 6.05183932 0.56862745 0.63137255 0.58823529
v 1.47161892 1.49127264 5.90868098 0.55686275 0.61960784 0.68235294
v 1.37119892 1.56822932 6.05775576 0.00000000 0.01176471 0.00392157
v 1.68313240 1.08000475 7.42709918 0.00000000 0.01176471 0.00000000
v 1.37786882 1.54562422 6.06545244 0.54509804 0.60392157 0.67843137
v 1.68231846 1.90432321 7.42873992 0.00392157 0.01960784 0.01568627
v 1.55402026 1.90366692 7.57898530 0.37647059 0.45882353 0.52549020
v 1.68372630 1.95399333 7.42500061 0.00000000 0.00000000 0.00000000
v 1.90581559 1.93767364 9.88083202 0.00000000 0.01176471 0.00000000
v 2.05751591 1.96691269 9.80466238 0.54509804 0.62352941 0.65882353
v 1.96119901 1.92366301 9.78451008 0.41176471 0.47843137 0.45490196
v 1.96526273 0.72877538 7.64463951 0.84705882 0.90588235 0.68235294
v 2.07999997 0.83199999 7.65439987 0.85882353 0.95686275 0.45882353
v 1.96522579 0.83251602 7.64463670 0.84705882 0.90588235 0.68235294
v 2.07999997 0.72799999 7.65439987 0.85882353 0.95686275 0.45882353
v 1.85655938 1.65827304 7.62554480 0.82352941 0.94509804 0.43921569
v 1.43220107 1.83173601 7.42636816 0.00000000 0.00784314 0.00392157
v 1.68306868 1.83445284 7.42765888 0.00000000 0.00392157 0.01176471
v 2.07999997 0.93599998 7.65439987 0.85882353 0.95686275 0.45882353
v 1.96518886 0.93625666 7.64463390 0.84705882 0.90588235 0.68235294
v 2.17313428 -0.31044775 7.61631823 0.85882353 0.95294118 0.47450980
v 1.96566906 -0.41237166 7.64467037 0.84705882 0.90588235 0.68235294
v 2.07999997 -0.31199999 7.65439987 0.85882353 0.95686275 0.45882353
v 2.17313428 -0.41393034 7.61631823 0.85882353 0.95294118 0.47450980
v 1.87148511 -1.04004814 7.68289336 0.83529412 0.93725490 0.43921569
v 1.96592762 -1.13855614 7.64469001 0.84705882 0.90588235 0.68235294
v 2.08004347 -1.14423453 7.68304278 0.46274510 0.52156863 0.25882353
v 1.87152223 -1.14430878 7.68289618 0.83529412 0.93725490 0.43921569
v 2.17313428 -0.62089551 7.61631823 0.85882353 0.95294118 0.47450980
v 2.07481294 -0.93366582 7.63531160 0.85882353 0.95686275 0.45882353
v 2.07481294 -0.82992517 7.63531160 0.85882353 0.95686275 0.45882353
v 2.07481294 -1.03740647 7.63531160 0.85882353 0.95686275 0.45882353
v 2.07481294 -1.14114711 7.63531160 0.85882353 0.95686275 0.45882353
v 2.07481294 -0.72618453 7.63531160 0.85882353 0.95686275 0.45882353
v 1.96589069 -1.03481550 7.64468720 0.84705882 0.90588235 0.68235294
v 1.87144798 -0.93578749 7.68289054 0.83529412 0.93725490 0.43921569
v 1.96585375 -0.93107486 7.64468440 0.84705882 0.90588235 0.68235294
v 1.87141086 -0.83152684 7.68288772 0.83529412 0.93725490 0.43921569
v 1.96581681 -0.82733422 7.64468159 0.84705882 0.90588235 0.68235294
v 1.96577987 -0.72359358 7.64467879 0.84705882 0.90588235 0.68235294
v 2.07481294 -0.62244388 7.63531160 0.85882353 0.95686275 0.45882353
v 2.07481294 -0.51870323 7.63531160 0.85882353 0.95686275 0.45882353
v 2.17313428 -0.51741292 7.61631823 0.85882353 0.95294118 0.47450980
v 1.96574293 -0.61985294 7.64467598 0.84705882 0.90588235 0.68235294
v 2.07481294 -0.41496259 7.63531160 0.85882353 0.95686275 0.45882353
v 1.96570599 -0.51611230 7.64467318 0.84705882 0.90588235 0.68235294
v 1.96563212 -0.30863102 7.64466756 0.84705882 0.90588235 0.68235294
v 2.17313428 -0.20696517 7.61631823 0.85882353 0.95294118 0.47450980
v 2.07999997 -0.20800000 7.65439987 0.85882353 0.95686275 0.45882353
v 1.87126237 -0.41448426 7.68287645 0.83529412 0.93725490 0.43921569
v 1.87122524 -0.31022362 7.68287363 0.83529412 0.93725490 0.43921569
v 1.96559518 -0.20489038 7.64466476 0.84705882 0.90588235 0.68235294
v 2.17313428 -0.10348258 7.61631823 0.85882353 0.95294118 0.47450980
v 2.07999997 -0.10400000 7.65439987 0.85882353 0.95686275 0.45882353
v 1.87118812 -0.20596297 7.68287081 0.83529412 0.93725490 0.43921569
v 1.96555824 -0.10114974 7.64466195 0.84705882 0.90588235 0.68235294
v 2.17313428 0.00000000 7.61631823 0.85882353 0.95294118 0.47450980
v 1.96552130 0.00259090 7.64465915 0.84705882 0.90588235 0.68235294
v 1.87115099 -0.10170233 7.68286799 0.83529412 0.93725490 0.43921569
v 2.07999997 0.10400000 7.65439987 0.85882353 0.95686275 0.45882353
v 2.07999997 0.00000000 7.65439987 0.85882353 0.95686275 0.45882353
v 1.96548436 0.10633154 7.64465634 0.84705882 0.90588235 0.68235294
v 1.87111387 0.00255832 7.68286517 0.83529412 0.93725490 0.43921569
v 2.07999997 0.20800000 7.65439987 0.85882353 0.95686275 0.45882353
v 1.96544742 0.21007218 7.64465354 0.84705882 0.90588235 0.68235294
v 1.87107675 0.10681896 7.68286235 0.83529412 0.93725490 0.43921569
v 2.17313428 0.10348258 7.61631823 0.85882353 0.95294118 0.47450980
v 2.07999997 0.31199999 7.65439987 0.85882353 0.95686275 0.45882353
v 1.96541049 0.31381282 7.64465073 0.84705882 0.90588235 0.68235294
v 1.87103962 0.21107961 7.68285953 0.83529412 0.93725490 0.43921569
v 2.17313428 0.20696517 7.61631823 0.85882353 0.95294118 0.47450980
v 2.07999997 0.41599999 7.65439987 0.85882353 0.95686275 0.45882353
v 1.96537355 0.41755346 7.64464793 0.84705882 0.90588235 0.68235294
v 1.87100250 0.31534025 7.68285671 0.83529412 0.93725490 0.43921569
v 2.17313428 0.31044775 7.61631823 0.85882353 0.95294118 0.47450980
v 2.07999997 0.51999999 7.65439987 0.85882353 0.95686275 0.45882353
v 1.96533661 0.52129410 7.64464512 0.84705882 0.90588235 0.68235294
v 1.87566677 0.42065094 7.70213760 0.83529412 0.93725490 0.43921569
v 2.17313428 0.41393034 7.61631823 0.85882353 0.95294118 0.47450980
v 2.07999997 0.62399999 7.65439987 0.85882353 0.95686275 0.45882353
v 1.96529967 0.62503474 7.64464231 0.84705882 0.90588235 0.68235294
v 1.87562955 0.52517355 7.70213478 0.83529412 0.93725490 0.43921569
v 2.17313428 0.51741292 7.61631823 0.85882353 0.95294118 0.47450980
v 1.87559234 0.62969616 7.70213195 0.83529412 0.93725490 0.43921569
v 2.17313428 0.62089551 7.61631823 0.85882353 0.95294118 0.47450980
v 2.17313428 0.72437809 7.61631823 0.85882353 0.95294118 0.47450980
v 2.07999997 1.03999998 7.65439987 0.85882353 0.95686275 0.45490196
v 1.96515192 1.03999730 7.64463109 0.84705882 0.90196078 0.69411765
v 2.17313428 0.82786068 7.61631823 0.85882353 0.95294118 0.47450980
v 2.07481294 1.14114711 7.63531160 0.55686275 0.63921569 0.61960784
v 2.17313428 1.03482585 7.61631823 0.85882353 0.95686275 0.45882353
v 2.07481294 1.24488776 7.63531160 0.83529412 0.95686275 0.45098039
v 1.87555512 0.73421877 7.70212912 0.83529412 0.93725490 0.43921569
v 1.87551790 0.83874138 7.70212630 0.83529412 0.93725490 0.43921569
v 2.17313428 0.93134326 7.61631823 0.85882353 0.95294118 0.47450980
v 1.87548069 0.94326398 7.70212347 0.83529412 0.93725490 0.43921569
v 1.87074264 1.04516477 7.68283697 0.83529412 0.93333333 0.47058824
v 2.17855358 1.34862841 7.63531160 0.84705882 0.96470588 0.44705882
v 1.87540625 1.15230920 7.70211782 0.37647059 0.45098039 0.47843137
v 2.09045229 1.56783922 7.69286442 0.79607843 0.90980392 0.41568627
v 2.20606059 1.78585857 7.73171711 0.58039216 0.63529412 0.58431373
v -7.40058342 2.90891988 17.60704251 0.00392157 0.00392157 0.03529412
v -6.93015375 2.55045881 17.63211143 0.00000000 0.00392157 0.01960784
v -7.40415439 2.55049899 17.61704364 0.00000000 0.00000000 0.03137255
v -5.50317401 2.54936911 17.66860175 0.00000000 0.00784314 0.00000000
v -6.17902128 2.98212264 17.49183400 0.50196078 0.63529412 0.74509804
v -5.67108376 2.95787775 17.31642472 0.52941176 0.63137255 0.72941176
v -6.92531817 3.08751102 17.61638018 0.03137255 0.03529412 0.05098039
v -7.39456553 3.08519608 17.58947470 0.01176471 0.01176471 0.04313725
v -6.90315042 3.25567636 17.54937155 0.00000000 0.00392157 0.01960784
v -6.48454655 3.24101578 17.01614308 0.51372549 0.63529412 0.75686275
v -6.17442844 3.15583467 17.47507233 0.48627451 0.61960784 0.72941176
v -6.52569201 3.61134840 17.14172484 0.49803922 0.61960784 0.74117647
v -5.27229269 2.70061030 17.87987244 0.55686275 0.63921569 0.72156863
v -3.74778511 2.98924364 11.88294943 0.60784314 0.63529412 0.65882353
v -3.99032145 2.71569644 12.43451884 0.00000000 0.00784314 0.04313725
v -4.18959926 2.53399615 12.48791199 0.52549020 0.63137255 0.70588235
v -5.24115282 2.74656981 19.02405631 0.00000000 0.00392157 0.02352941
v -5.44838007 2.66687705 18.44602644 0.00392157 0.00784314 0.01568627
v -4.94620390 2.67138936 18.43951395 0.00000000 0.01568627 0.01176471
v 1.68231846 1.90432321 7.42873992 0.00392157 0.01960784 0.01568627
v 1.55402026 1.90366692 7.57898530 0.37647059 0.45882353 0.52549020
v 1.56058207 1.82912128 7.41613073 0.85490196 0.95294118 0.48235294
v 1.75087422 1.88509496 7.43243497 0.55294118 0.63137255 0.53333333
v -5.76685371 2.75100919 19.05256006 0.00000000 0.00000000 0.01960784
v -5.49002800 3.24107273 18.96345663 0.52156863 0.63137255 0.72549020
v -5.59072077 2.81679688 18.90703504 0.52549020 0.65098039 0.74117647
v -5.13733993 3.10872197 18.23301399 0.52549020 0.63529412 0.72941176
v -5.44359816 2.66505387 18.41490328 0.00000000 0.00392157 0.01568627
v -5.44466119 2.75997678 18.41348312 0.57254902 0.62352941 0.68627451
v -4.53429640 3.59906415 18.28694537 0.01176471 0.00784314 0.00000000
v -4.44878227 3.42604138 18.45491872 0.00000000 0.00000000 0.01960784
v -4.74988597 3.76438017 18.28098461 0.35294118 0.45882353 0.52549020
v 1.68372630 1.95399333 7.42500061 0.00000000 0.00000000 0.00000000
v 1.68306868 1.83445284 7.42765888 0.00000000 0.00392157 0.01176471
v 1.65585960 1.83868560 7.30374495 0.55294118 0.61176471 0.70196078
v 1.27249810 1.85440086 7.26600789 0.00000000 0.01960784 0.00000000
v 1.49976887 1.94226315 7.34066168 0.01176471 0.00784314 0.00000000
v -6.94405112 2.85617902 18.41302314 0.00000000 0.00000000 0.00784314
v -6.73393744 2.75009489 18.51554975 0.50980392 0.63529412 0.71764706
v -6.95200308 2.67304689 18.44818545 0.00000000 0.00784314 0.02745098
v -5.94317505 3.97452487 18.39896445 0.00000000 0.00000000 0.01960784
v -5.94156515 3.97187132 18.41490636 0.00000000 0.00392157 0.01568627
v -5.94728771 3.79873272 18.43390454 0.00000000 0.00000000 0.00000000
v -5.54317786 2.65424566 18.33222983 0.00392157 0.00784314 0.01568627
v -5.50896078 3.29320740 18.05100330 0.33725490 0.45882353 0.56862745
v -5.53833949 3.58497667 18.31261773 0.01176471 0.00000000 0.00784314
v -6.51734787 3.78020413 18.28408725 0.00392157 0.00784314 0.01568627
v -6.38172440 3.29392794 18.22353516 0.57254902 0.61176471 0.65098039
v -6.42076217 3.50218194 18.34964744 0.57647059 0.61568627 0.65098039
v -6.54663353 3.61104907 18.36397386 0.00000000 0.00392157 0.02745098
v -4.97789518 2.64381208 18.08558063 0.00784314 0.02352941 0.01960784
v -4.49506277 2.64393687 18.11492704 0.00000000 0.01568627 0.05098039
v -4.44782777 2.67730488 18.44902839 0.00784314 0.01176471 0.03137255
v -4.44616300 2.75695700 18.38573576 0.60000000 0.61176471 0.64705882
v -4.44213145 2.66130648 18.41188239 0.00000000 0.01176471 0.03529412
v -4.25579980 3.39671054 15.97621863 0.36470588 0.46666667 0.56470588
v -4.91415176 3.00932526 15.73893361 0.32941176 0.45490196 0.55294118
v -4.27149364 3.27839970 15.44872064 0.34509804 0.45490196 0.54117647
v -7.45603766 2.67661617 18.45674885 0.00784314 0.02745098 0.03921569
v -4.83953043 3.73774353 18.83445653 0.34117647 0.44313725 0.53333333
v -4.64684928 3.55366670 18.84156791 0.39215686 0.46666667 0.52549020
v -4.71142674 3.70811672 18.96856722 0.00000000 0.00784314 0.00392157
v 1.43220107 1.83173601 7.42636816 0.00000000 0.00784314 0.00392157
v -7.52037211 2.65781418 18.29856479 0.00000000 0.00000000 0.01960784
v -7.52051473 3.03083051 18.29863106 0.00000000 0.01176471 0.03137255
v 2.05751591 1.96691269 9.80466238 0.54509804 0.62352941 0.65882353
v 1.90581559 1.93767364 9.88083202 0.00000000 0.01176471 0.00000000
v 1.96119901 1.92366301 9.78451008 0.41176471 0.47843137 0.45490196
v -3.53991317 2.68835485 11.49046483 0.52941176 0.64313725 0.70588235
v -3.39991307 2.88726438 11.55707177 0.00000000 0.00000000 0.00784314
v -3.41334989 3.00916770 11.60673218 0.00000000 0.00784314 0.03529412
v -3.38863534 2.69462860 11.51025862 0.60000000 0.61568627 0.65882353
v -2.62512006 2.29003157 10.97215499 0.00000000 0.00000000 0.01960784
v -3.10832487 1.90385295 11.04997877 0.51372549 0.61960784 0.73333333
v -2.59983655 2.14958393 10.85985471 0.00784314 0.00784314 0.01568627
f 1 2 3
f 4 5 6
f 3 7 1
f 8 9 10
f 9 8 11
f 1 7 12
f 7 13 12
f 13 7 11
f 7 9 11
f 14 15 16
f 17 7 18
f 14 19 20
f 19 14 17
f 17 18 19
f 16 17 14
f 18 21 20
f 22 20 23
f 20 19 18
f 20 21 23
f 22 23 21
f 22 21 24
f 25 24 21
f 24 25 26
f 26 27 24
f 27 25 28
f 28 25 29
f 9 30 10
f 11 31 13
f 13 32 33
f 32 13 31
f 22 24 27
f 8 10 34
f 8 31 35
f 11 8 35
f 32 31 12
f 35 31 36
f 11 35 36
f 37 38 39
f 8 34 40
f 32 12 33
f 33 12 41
f 36 31 42
f 39 38 43
f 8 40 37
f 41 12 44
f 45 46 47
f 46 45 48
f 47 49 45
f 50 49 51
f 49 50 52
f 49 52 45
f 53 46 48
f 54 55 51
f 55 54 56
f 50 51 52
f 49 54 51
f 51 55 52
f 55 57 58
f 57 55 56
f 52 59 60
f 59 52 61
f 52 55 61
f 61 55 58
f 53 60 62
f 45 52 60
f 57 61 58
f 60 59 62
f 63 64 65
f 66 67 68
f 67 66 69
f 70 71 72
f 71 70 73
f 74 75 76
f 77 78 79
f 79 78 74
f 75 70 72
f 72 71 80
f 79 76 77
f 76 79 74
f 75 72 80
f 80 71 81
f 67 69 82
f 80 81 83
f 71 84 85
f 84 71 73
f 80 86 87
f 86 80 83
f 75 80 76
f 67 82 88
f 86 83 89
f 81 71 85
f 90 91 86
f 91 90 78
f 76 80 87
f 74 78 92
f 92 78 90
f 82 69 89
f 84 81 85
f 83 93 89
f 86 89 94
f 90 94 92
f 94 90 86
f 89 92 94
f 82 89 93
f 66 68 95
f 96 97 95
f 87 86 91
f 98 99 100
f 101 102 103
f 102 101 104
f 105 96 106
f 82 106 88
f 106 82 105
f 106 96 107
f 68 67 88
f 103 108 109
f 108 103 102
f 95 97 66
f 88 106 107
f 88 107 68
f 96 95 68
f 110 111 112
f 111 110 113
f 114 115 116
f 107 96 68
f 116 115 117
f 118 119 120
f 115 121 122
f 118 120 123
f 124 119 121
f 125 124 114
f 126 120 119
f 126 125 127
f 128 123 120
f 129 130 123
f 118 131 132
f 131 118 133
f 123 130 118
f 118 130 133
f 132 134 113
f 134 132 135
f 132 131 135
f 111 113 134
f 136 137 110
f 137 136 138
f 111 139 112
f 112 139 140
f 110 112 136
f 141 142 137
f 142 141 143
f 140 136 112
f 136 140 138
f 138 140 144
f 137 138 141
f 145 146 142
f 146 145 147
f 144 141 138
f 141 144 143
f 143 144 148
f 142 143 145
f 149 147 150
f 147 149 151
f 143 150 145
f 150 143 148
f 150 148 152
f 147 145 150
f 153 151 149
f 151 153 154
f 149 150 152
f 149 152 155
f 156 146 147
f 147 151 156
f 157 154 153
f 154 157 158
f 153 149 155
f 153 155 159
f 160 156 151
f 151 154 160
f 161 158 157
f 158 161 162
f 157 153 159
f 157 159 163
f 164 160 154
f 154 158 164
f 165 162 161
f 162 165 166
f 161 157 163
f 161 163 167
f 168 164 158
f 158 162 168
f 169 166 165
f 166 169 170
f 165 161 167
f 165 167 171
f 172 168 162
f 162 166 172
f 104 170 169
f 170 104 101
f 169 165 171
f 169 171 173
f 174 172 166
f 166 170 174
f 93 174 175
f 176 109 108
f 109 176 177
f 104 169 173
f 170 101 175
f 93 175 178
f 175 174 170
f 179 93 180
f 93 179 181
f 102 104 182
f 102 182 183
f 101 103 178
f 93 178 184
f 178 175 101
f 179 180 177
f 108 102 183
f 108 183 185
f 103 109 184
f 93 184 180
f 184 178 103
f 176 108 185
f 176 185 186
f 109 177 180
f 180 184 109
f 93 181 187
f 176 179 177
f 185 188 186
f 105 189 190
f 159 155 167
f 163 159 167
f 104 173 182
f 191 192 193
f 194 195 196
f 197 198 199
f 197 199 195
f 200 196 201
f 202 200 201
f 196 195 201
f 194 196 203
f 204 205 206
f 207 208 209
f 210 211 212
f 211 210 213
f 214 215 207
f 215 214 216
f 217 208 218
f 208 217 209
f 217 218 219
f 220 221 222
f 223 213 224
f 213 223 225
f 226 225 227
f 228 229 230
f 231 232 233
f 208 219 218
f 219 208 234
f 235 217 236
f 237 238 239
f 240 237 239
f 217 203 241
f 203 242 241
f 243 244 245
f 246 247 248
f 249 228 230
f 250 251 252
f 210 212 223
f 211 226 253
f 254 249 255
f 256 257 258
f 253 212 211
f 212 253 227
f 253 226 227
f 227 225 212
f 212 225 223
f 213 210 224
f 259 260 261
f 260 259 262
f 263 264 265

